<svg version="1.1" id="Livello_1" xmlns="http://www.w3.org/2000/svg" xmlns:xlink="http://www.w3.org/1999/xlink" x="0px" y="0px"
	 width="40px" height="40px" viewBox="0 0 40 40" enable-background="new 0 0 40 40" xml:space="preserve">
	<path fill="#FFFFFF" d="M12.657,17.848c-2.048,2.047-2.048,5.367,0,7.416c2.047,2.047,5.367,2.047,7.415,0l0.009-0.012
		c3.555-3.553,10.15-10.145,10.253-10.246c0.293-0.292,0.294-0.765,0.003-1.057c-0.293-0.293-0.766-0.294-1.06-0.002
		c-0.102,0.101-10.262,10.258-10.262,10.258c-1.464,1.464-3.836,1.464-5.299,0s-1.463-3.836,0-5.299l15.698-15.69v0
		c2.024-2.024,5.306-2.024,7.329,0s2.023,5.305,0,7.329l0.004-0.001l-9.507,9.5c-0.916,0.916-0.917,2.408-0.003,3.324l10.367,10.396
		c0.985,0.985,1.076,2.581,0.661,3.582c-0.219,0.529-0.674,1.16-1.594,1.16H5.738c-2.338,0-4.242-1.901-4.242-4.238V4.176
		c0-1.257,0.497-2.151,1.397-2.515c1.156-0.468,2.704,0.054,3.939,1.33C7.12,3.288,7.595,3.295,7.891,3.008
		c0.299-0.287,0.307-0.761,0.018-1.058c-1.662-1.716-3.85-2.374-5.576-1.676C0.872,0.865,0,2.323,0,4.176v30.09
		C0,37.428,2.574,40,5.738,40h30.935c1.344,0,2.428-0.76,2.978-2.084c0.718-1.731,0.303-3.924-0.986-5.211L28.299,22.31
		c-0.333-0.333-0.333-0.877,0.001-1.21l9.517-9.514c2.608-2.608,2.608-6.836,0-9.444c-2.607-2.608-6.837-2.608-9.443,0
		L12.657,17.848z"/>
</svg>
