<svg xmlns="http://www.w3.org/2000/svg" width="40" height="40" viewBox="0 0 40 40"><path fill="#222" d="M12.657 17.848a5.244 5.244 0 0 0 7.415 7.416l.009-.012c3.556-3.553 10.149-10.145 10.253-10.246a.747.747 0 1 0-1.057-1.059c-.103.101-10.262 10.258-10.262 10.258a3.747 3.747 0 0 1-5.299-5.299l15.698-15.69a5.182 5.182 0 1 1 7.329 7.329l.004-.001-9.507 9.5a2.357 2.357 0 0 0-.004 3.324l10.367 10.396c.985.985 1.076 2.582.662 3.582-.22.529-.675 1.16-1.595 1.16H5.738a4.245 4.245 0 0 1-4.242-4.238V4.176c0-1.257.497-2.151 1.397-2.515 1.156-.468 2.704.054 3.939 1.33A.75.75 0 0 0 7.909 1.95C6.247.234 4.059-.424 2.333.274.872.865 0 2.323 0 4.176v30.09A5.742 5.742 0 0 0 5.738 40h30.935c1.345 0 2.429-.76 2.978-2.084.719-1.73.304-3.924-.985-5.211L28.299 22.311A.858.858 0 0 1 28.3 21.1l9.517-9.514a6.678 6.678 0 0 0-9.442-9.444L12.657 17.848z"/></svg>