<?xml version="1.0" encoding="utf-8"?>
<!-- Generator: Adobe Illustrator 16.0.0, SVG Export Plug-In . SVG Version: 6.00 Build 0)  -->
<!DOCTYPE svg PUBLIC "-//W3C//DTD SVG 1.1//EN" "http://www.w3.org/Graphics/SVG/1.1/DTD/svg11.dtd">
<svg version="1.1" id="Livello_1" xmlns="http://www.w3.org/2000/svg" xmlns:xlink="http://www.w3.org/1999/xlink" x="0px" y="0px"
	 width="40px" height="40px" viewBox="0 0 40 40" enable-background="new 0 0 40 40" xml:space="preserve">
<path fill="#222222" d="M12.657,17.848c-2.048,2.047-2.048,5.367,0,7.416c2.047,2.047,5.367,2.047,7.415,0l0.009-0.012
	c3.556-3.553,10.149-10.145,10.253-10.246c0.293-0.292,0.294-0.765,0.003-1.057c-0.293-0.293-0.767-0.294-1.06-0.002
	c-0.103,0.101-10.262,10.258-10.262,10.258c-1.464,1.464-3.836,1.464-5.299,0c-1.463-1.464-1.463-3.836,0-5.299l15.698-15.69l0,0
	c2.023-2.024,5.307-2.024,7.329,0c2.022,2.024,2.022,5.305,0,7.329l0.004-0.001l-9.507,9.5c-0.916,0.916-0.917,2.408-0.004,3.324
	l10.367,10.396c0.985,0.985,1.076,2.582,0.662,3.582c-0.22,0.529-0.675,1.16-1.595,1.16H5.738c-2.338,0-4.242-1.9-4.242-4.238V4.176
	c0-1.257,0.497-2.151,1.397-2.515c1.156-0.468,2.704,0.054,3.939,1.33C7.12,3.288,7.595,3.295,7.891,3.008
	C8.19,2.721,8.198,2.247,7.909,1.95c-1.662-1.716-3.85-2.374-5.576-1.676C0.872,0.865,0,2.323,0,4.176v30.09
	C0,37.428,2.574,40,5.738,40h30.935c1.345,0,2.429-0.76,2.978-2.084c0.719-1.73,0.304-3.924-0.985-5.211L28.299,22.311
	c-0.333-0.334-0.333-0.877,0.001-1.211l9.517-9.514c2.608-2.608,2.608-6.836,0-9.444c-2.606-2.608-6.836-2.608-9.442,0
	L12.657,17.848z"/>
</svg>
