<?xml version="1.0" encoding="utf-8"?>
<!-- Generator: Adobe Illustrator 21.0.0, SVG Export Plug-In . SVG Version: 6.00 Build 0)  -->
<svg version="1.1" id="Livello_1" xmlns="http://www.w3.org/2000/svg" xmlns:xlink="http://www.w3.org/1999/xlink" x="0px" y="0px"
	 viewBox="0 0 512 512" style="enable-background:new 0 0 512 512;" xml:space="preserve">
<style type="text/css">
	.st0{fill:#FFFFFF;stroke:#000000;stroke-width:1.1823;}
	.st1{fill:#FFFFFF;stroke:#000000;stroke-width:1.1823;stroke-opacity:0;}
</style>
<g id="g4403_6_" transform="translate(-271.07246,1.6796612)">
	<g id="g186-2-6-3_6_" transform="matrix(0.48395077,0,0,-0.47307263,328.31906,71.555309)">
		<path id="path188-0-1-7_6_" d="M330.7-632.7c0-28.5-9-51.6-20.2-51.6c-11.2,0-20.2,23.1-20.2,51.6c0,28.5,9,51.6,20.2,51.6
			C321.7-581.1,330.7-604.2,330.7-632.7"/>
	</g>
	<g id="g190-2-8-8_6_" transform="matrix(0.48395077,0,0,-0.47307263,329.70316,71.971609)">
		<path id="path192-3-7-7_6_" d="M363.6-642.9c0-22.4-7.1-40.6-15.9-40.6c-8.8,0-15.9,18.2-15.9,40.6c0,22.4,7.1,40.6,15.9,40.6
			C356.5-602.2,363.6-620.4,363.6-642.9"/>
	</g>
	<g id="g194-7-9-41_6_" transform="matrix(0.48395077,0,0,-0.47307263,340.38926,71.555309)">
		<path id="path196-5-2-90_6_" d="M617.7-632.7c0-28.5-9-51.6-20.2-51.6s-20.2,23.1-20.2,51.6c0,28.5,9,51.6,20.2,51.6
			S617.7-604.2,617.7-632.7"/>
	</g>
	<g id="g198-9-0-9_6_" transform="matrix(0.48395077,0,0,-0.47307263,341.77306,71.971609)">
		<path id="path200-2-2-8_6_" d="M650.6-642.9c0-22.4-7.1-40.6-15.9-40.6s-15.9,18.2-15.9,40.6c0,22.4,7.1,40.6,15.9,40.6
			S650.6-620.4,650.6-642.9"/>
	</g>
	<g id="g202-2-3-85_10_" transform="matrix(0.48395077,0,0,-0.47307263,343.75166,59.875209)">
		<g>
			<path id="path204-8-7-8_9_" class="st0" d="M697.7-348.6l56.7-143.2c21,14.2,34.8,38.1,34.8,65.3c0,43.5-35.3,78.8-78.9,78.8
				C705.9-347.6,701.7-348,697.7-348.6"/>
		</g>
	</g>
	<g id="g206-9-5-4_6_" transform="matrix(0.48395077,0,0,-0.47307263,346.86966,62.818479)">
		<path id="path208-7-9-37_6_" d="M771.8-420.2c0-17.7-7-34.8-19.3-47.4l-45.6,115.3C742.9-354,771.8-383.8,771.8-420.2
			 M703.8-330.6c-4.8,0-9.6-0.4-14.3-1.1l-13.4-2.2l66.6-168.3l11.2,7.6c24.8,16.7,39.6,44.5,39.6,74.4
			C793.6-370.8,753.3-330.6,703.8-330.6"/>
	</g>
	<g id="g210-3-2-1_6_" transform="matrix(0.48395077,0,0,-0.47307263,331.81806,55.822059)">
		<path id="path212-6-2-38_10_" class="st1" d="M413.9-250.1c14.8,7.4,31.5,11.6,49.2,11.6c48.5,0,89.8-31.7,104.3-75.3
			c16.4,8.2,34.8,12.8,54.4,12.8c62.7,0,114.4-47.5,120.8-108.5c23.5-26.7,37.9-62.5,37.9-100.8c0-83.5-67.8-151.3-151.4-151.3
			c-47,0-89.1,10.6-116.9,44.2c-38.9-45.5-96-62.3-160.6-62.3c-94.3,0-174.2,61.5-201.9,146.5c-40.9,15-71.1,54.7-71.1,100.8
			c0,50.7,29.7,76,44.2,86.6L413.9-250.1z"/>
	</g>
	<g id="g214-1-8-0_6_" transform="matrix(0.48395077,0,0,-0.47307263,321.02466,65.799459)">
		<path id="path216-2-9-9_6_" d="M157.3-492.7c-28.2,17.7-45.5,48.5-45.5,81.5c0,31.9,12.9,57.8,38.4,76.8l289.6,95.2l1.3,0.5
			c13.8,6.9,28.7,10.4,44.3,10.4c42.7,0,80.5-27.3,94-67.9l4-11.9l11.2,5.6c15.5,7.7,32.1,11.7,49.5,11.7
			c48.2,0,90.7-31.2,105.2-76.5c-24,9-50.9-4.5-50.9-4.5h2.7c9.3,0,90.8-3.3,90.8-117.4c0-77.4-63-140.4-140.6-140.4
			c-52,0-85.5,12.4-108.4,40.2l-8.3,10l-8.4-9.8c-34.1-39.9-82.6-58.5-152.4-58.5c-55.9,0-108.1,22.6-147.2,63.6
			c-32.9,34.6-45.7,65.4-50.4,88.5c-6.3,31.7,4.6,53.4,4.6,53.4S156.8-466.6,157.3-492.7 M775.3-383.8
			C766.7-318.3,710.4-269,644.1-269c-16.8,0-33-3.1-48.4-9.1c-19.4,43.6-62.4,71.6-110.3,71.6c-18.8,0-36.8-4.2-53.1-12.3
			l-291.7-95.9l-1.8-1.1C106.4-339.3,90-371.4,90-411.2c0-47.1,29.4-90.8,73.3-109.1c31.3-89.2,115.7-149.1,210.6-149.1
			c72.2,0,123.3,18.1,160.6,56.9c33.6-34.3,80-38.8,116.9-38.8c89.5,0,162.3,72.7,162.3,162.1C813.6-450.4,800-413,775.3-383.8"/>
	</g>
	<g id="g218-9-7-7_10_" transform="matrix(0.48395077,0,0,-0.47307263,331.55316,58.754979)">
		<g>
			<path id="path220-3-3-9_9_" class="st0" d="M407.6-321.4c-26-70.3-90.4-117.2-169.8-117.2c-44,0-87,25.9-104.4,63.3
				c-8.2-3.5-32.3-19.2-71.8-11.7c-36.9,7-68,30.4-68,67.9c0,64.8,56.8,112.8,119.4,112.8c7.7,0,15.2-0.7,22.4-2.1v0
				c23.3,50.9,74.7,86.3,134.4,86.3c81.5,0,147.6-66,147.6-147.4c0-19.4-3.8-37.9-10.6-54.9"/>
		</g>
	</g>
	<path id="path224-1-6-9_6_" d="M444,167.9c14.9,0,27,11.5,27,25.7c0,14.2-10.7,25.4-24.4,25.4c-6.9,0-12.5-5.5-12.5-12.2
		c0-7.2,4.1-12.5,9.8-14.4c0,0-18.4-1.6-20.4,14.2c-0.6,5.3,1.1,10.5,5,14.8c4.5,4.9,11.2,7.9,18.1,7.9c19.2,0,34.9-16,34.9-35.7
		c0-19.9-16.8-36-37.5-36c-32.1,0-58.3,25.5-58.3,56.9c0,6.6,1.2,13.1,3.4,19.3c-4,1.8-9.9,3.8-17.8,3.8c-2.9,0-6-0.3-9-0.9
		c-13.8-2.6-28.6-11-28.6-27.1c0-26.6,23.6-48.2,52.5-48.2c3.3,0,6.6,0.3,9.9,0.9l4.7,0.7l0.4-0.9c0.2-0.4,17-40.5,60.9-40.5
		c36.5,0,66.2,29,66.2,64.6c0,7.4-1.3,14.7-3.8,21.7h-0.1l-0.5,1.2c-12.3,32.6-40.2,52.1-74.6,52.1c-34.6,0-53-27.1-53-46.6
		C396.3,188.8,417.7,167.9,444,167.9 M462.1,111.4c-28.3,0-55,15.8-68,40.3c-2.6-0.3-5.2-0.5-7.8-0.5c-34.8,0-63,26.2-63,58.5
		c0,18.4,14.6,33,37.2,37.2c3.7,0.7,7.4,1,10.9,1c10.1,0,17.5-2.6,22.5-4.8c9.9,16.2,33.5,28.3,55.5,28.3c37.8,0,68.9-21,83.4-56.1
		h0.1l0.5-1.2c3.6-8.9,5.5-18.3,5.5-27.9C538.8,144.9,504.4,111.3,462.1,111.4"/>
</g>
</svg>
