<svg xmlns="http://www.w3.org/2000/svg" width="120" height="42" version="1"><path d="M3.408.453l113.354.201c1.584 0 3-.235 3 3.16l-.14 37.33H.547V3.676C.547 2 .71.453 3.408.453z" fill="#aab2ab"/><path d="M117.753 0H2.248A2.25 2.25 0 0 0 0 2.247v39.246c0 .28.227.507.508.507h118.984c.28 0 .508-.227.508-.507V2.247A2.25 2.25 0 0 0 117.753 0zM2.248 1.015h115.505c.68 0 1.232.553 1.232 1.232v27.22H36.428c-3.026 5.472-8.856 9.186-15.547 9.186-6.692 0-12.521-3.711-15.545-9.185h-4.32V2.247c0-.68.552-1.232 1.232-1.232z"/><path d="M34.522 19.551c.005 7.53-6.096 13.637-13.626 13.642-7.53.005-13.639-6.096-13.644-13.625v-.017C7.248 12.021 13.35 5.914 20.88 5.91c7.531-.005 13.64 6.096 13.643 13.625v.016z" fill="#fff"/><path d="M31.972 8.447c3.023 3.023 4.535 6.725 4.535 11.104 0 4.38-1.486 8.043-4.458 10.988-3.154 3.102-6.88 4.653-11.182 4.653-4.248 0-7.911-1.538-10.986-4.614-3.076-3.075-4.613-6.75-4.613-11.027 0-4.275 1.537-7.976 4.613-11.104 2.997-3.024 6.66-4.536 10.986-4.536 4.38 0 8.08 1.512 11.105 4.536zM11.917 10.48c-2.557 2.581-3.835 5.605-3.835 9.074 0 3.469 1.266 6.467 3.795 8.996 2.53 2.53 5.542 3.795 9.037 3.795 3.495 0 6.532-1.278 9.115-3.833 2.451-2.374 3.677-5.359 3.677-8.958 0-3.571-1.246-6.603-3.737-9.094-2.49-2.49-5.509-3.735-9.055-3.735-3.546 0-6.547 1.252-8.997 3.755zm6.726 7.549c-.39-.852-.974-1.278-1.755-1.278-1.378 0-2.067.928-2.067 2.784 0 1.856.69 2.783 2.067 2.783.91 0 1.56-.452 1.951-1.357l1.91 1.017c-.91 1.618-2.277 2.428-4.098 2.428-1.406 0-2.531-.43-3.377-1.292-.846-.862-1.27-2.05-1.27-3.564 0-1.487.438-2.668 1.31-3.543.87-.875 1.958-1.312 3.259-1.312 1.926 0 3.304.759 4.14 2.275l-2.07 1.059zm8.99 0c-.39-.852-.964-1.278-1.72-1.278-1.405 0-2.109.928-2.109 2.784 0 1.856.704 2.783 2.11 2.783.912 0 1.55-.452 1.915-1.357l1.953 1.017c-.91 1.618-2.274 2.428-4.092 2.428-1.404 0-2.526-.43-3.372-1.292-.843-.862-1.266-2.05-1.266-3.564 0-1.487.429-2.668 1.287-3.543.857-.875 1.947-1.312 3.273-1.312 1.923 0 3.3.759 4.13 2.275l-2.108 1.059z"/><g transform="matrix(.99378 0 0 .99367 -437.123 -74.437)"><circle cx="491.946" cy="90.232" r="10.806" fill="#fff"/><path d="M495.074 87.105a.754.754 0 0 0-.754-.754h-4.773a.754.754 0 0 0-.754.754v4.773h1.332v5.652h3.617v-5.652h1.332v-4.773z"/><circle cx="491.934" cy="84.09" r="1.632"/><path clip-rule="evenodd" d="M491.918 78.325c-3.231 0-5.967 1.128-8.207 3.384-2.297 2.333-3.446 5.096-3.446 8.285s1.149 5.931 3.446 8.227c2.298 2.294 5.035 3.442 8.207 3.442 3.213 0 5.999-1.157 8.355-3.472 2.22-2.197 3.329-4.93 3.329-8.197 0-3.268-1.129-6.03-3.388-8.285-2.258-2.256-5.023-3.384-8.296-3.384zm.03 2.1c2.65 0 4.897.934 6.747 2.801 1.87 1.847 2.805 4.104 2.805 6.768 0 2.683-.916 4.91-2.747 6.68-1.927 1.906-4.196 2.859-6.804 2.859-2.61 0-4.86-.943-6.748-2.83-1.889-1.886-2.833-4.122-2.833-6.71 0-2.586.954-4.842 2.862-6.767 1.831-1.867 4.07-2.801 6.719-2.801z" fill-rule="evenodd"/></g><g fill="#fff"><path d="M48.401 32.747c.316 0 .604.029.864.084.26.055.483.146.67.274.185.126.329.295.431.504.102.21.154.47.154.78 0 .333-.076.61-.228.833-.152.223-.377.405-.674.547.41.118.715.323.917.617.202.294.303.649.303 1.063 0 .334-.065.623-.195.867s-.306.444-.526.598c-.22.155-.47.27-.752.344a3.381 3.381 0 0 1-.87.111H45.28v-6.622h3.122zm-.186 2.679c.26 0 .473-.062.64-.186.168-.123.252-.323.252-.6a.768.768 0 0 0-.084-.38.625.625 0 0 0-.223-.232.945.945 0 0 0-.32-.115 2.167 2.167 0 0 0-.377-.032H46.74v1.545h1.476zm.085 2.81c.143 0 .279-.014.409-.042a1.04 1.04 0 0 0 .344-.139.704.704 0 0 0 .237-.265.913.913 0 0 0 .088-.426c0-.34-.096-.582-.288-.727-.192-.145-.446-.218-.762-.218h-1.59v1.817H48.3zM51.095 32.747h1.633l1.55 2.616 1.543-2.616h1.623l-2.459 4.08v2.542h-1.46v-2.578l-2.43-4.044z"/></g><g fill="#fff"><path d="M98.44 37.732c.081.155.187.28.32.376.133.096.288.167.468.213.178.047.363.07.555.07.129 0 .268-.01.416-.033.148-.021.286-.063.416-.125a.91.91 0 0 0 .325-.255.644.644 0 0 0 .129-.413.58.58 0 0 0-.172-.435 1.36 1.36 0 0 0-.448-.279 4.664 4.664 0 0 0-.63-.195 16.84 16.84 0 0 1-.714-.185 6.45 6.45 0 0 1-.723-.227 2.472 2.472 0 0 1-.63-.349 1.628 1.628 0 0 1-.448-.532 1.618 1.618 0 0 1-.172-.775c0-.34.073-.635.218-.886.145-.25.336-.459.57-.627.234-.167.5-.29.797-.37.296-.08.593-.12.89-.12.346 0 .677.038.996.116.317.077.6.203.847.375.248.174.444.395.59.664.144.27.217.596.217.98h-1.414a1.173 1.173 0 0 0-.124-.492.82.82 0 0 0-.282-.306 1.174 1.174 0 0 0-.401-.158 2.448 2.448 0 0 0-.494-.046 1.72 1.72 0 0 0-.35.037.933.933 0 0 0-.319.13.802.802 0 0 0-.235.232.63.63 0 0 0-.093.352c0 .13.025.236.074.315.05.08.147.156.292.223.146.068.346.136.602.204.256.068.592.155 1.005.26.124.025.295.07.514.135.22.065.437.168.653.31.216.143.403.334.56.571.158.238.237.543.237.914 0 .303-.06.585-.177.845-.117.26-.292.484-.524.672-.232.19-.52.336-.863.44-.342.106-.74.159-1.192.159-.364 0-.718-.046-1.061-.135a2.662 2.662 0 0 1-.909-.423 2.1 2.1 0 0 1-.627-.735c-.154-.297-.229-.649-.222-1.057h1.413c0 .222.04.411.12.565zM106.646 32.747l2.477 6.622h-1.512l-.501-1.475h-2.477l-.52 1.475h-1.465l2.504-6.622h1.494zm.084 4.06l-.835-2.427h-.02l-.861 2.427h1.716z"/></g><g fill="#fff"><path d="M72.518 32.747l2.767 4.443h.015v-4.443h1.367v6.622H75.21l-2.756-4.433h-.019v4.433H71.07v-6.622h1.449zM82.196 34.512a1.492 1.492 0 0 0-.766-.612 1.505 1.505 0 0 0-.515-.089c-.328 0-.606.063-.835.19a1.56 1.56 0 0 0-.556.51 2.232 2.232 0 0 0-.312.727 3.613 3.613 0 0 0 0 1.655c.065.263.17.5.312.71.141.21.327.378.556.505.229.127.507.19.835.19.445 0 .793-.136 1.044-.409.25-.271.403-.63.459-1.076h1.41a3.37 3.37 0 0 1-.287 1.123 2.596 2.596 0 0 1-1.503 1.394c-.34.125-.715.187-1.123.187-.507 0-.963-.088-1.369-.265a2.94 2.94 0 0 1-1.026-.728 3.232 3.232 0 0 1-.641-1.09 4.005 4.005 0 0 1-.223-1.351c0-.495.074-.954.223-1.378.148-.424.363-.794.641-1.11a2.938 2.938 0 0 1 1.026-.742c.406-.18.862-.269 1.37-.269.364 0 .709.053 1.033.159.325.104.616.258.873.46.257.2.468.45.635.747.167.297.272.637.316 1.02h-1.41a1.198 1.198 0 0 0-.167-.458z"/></g><path d="M114.58 14.98c.005 5.846-4.731 10.588-10.578 10.592-5.846.004-10.588-4.73-10.593-10.577v-.014c-.003-5.845 4.733-10.588 10.578-10.592 5.846-.004 10.588 4.731 10.593 10.576v.016z" fill="#fff"/><path d="M103.919 3.386c-3.212 0-5.932 1.12-8.156 3.362-2.284 2.319-3.426 5.063-3.426 8.233 0 3.169 1.142 5.893 3.426 8.174 2.283 2.28 5.002 3.42 8.156 3.42 3.193 0 5.96-1.15 8.301-3.448 2.206-2.185 3.31-4.9 3.31-8.146 0-3.247-1.122-5.991-3.368-8.233-2.244-2.241-4.992-3.362-8.243-3.362zm.029 2.087c2.632 0 4.866.927 6.705 2.783 1.858 1.835 2.786 4.076 2.786 6.725 0 2.666-.909 4.879-2.729 6.639-1.914 1.893-4.17 2.84-6.762 2.84-2.593 0-4.828-.938-6.705-2.812-1.877-1.875-2.815-4.097-2.815-6.667 0-2.57.947-4.812 2.844-6.725 1.819-1.856 4.044-2.783 6.676-2.783z"/><path d="M98.78 13.345c.461-2.918 2.515-4.478 5.09-4.478 3.7 0 5.957 2.686 5.957 6.268 0 3.495-2.4 6.21-6.016 6.21-2.487 0-4.714-1.53-5.12-4.535h2.922c.087 1.56 1.1 2.109 2.546 2.109 1.648 0 2.718-1.53 2.718-3.87 0-2.456-.925-3.755-2.661-3.755-1.272 0-2.371.462-2.603 2.05l.85-.005-2.3 2.3-2.299-2.3.915.006z"/><g><path d="M87.802 14.99c.005 5.501-4.452 9.963-9.953 9.967-5.501.004-9.963-4.452-9.967-9.952v-.014c-.004-5.501 4.452-9.963 9.953-9.967 5.5-.003 9.963 4.452 9.967 9.952v.015z" fill="#fff"/><path d="M86.07 6.755c-2.244-2.242-4.992-3.363-8.243-3.363-3.212 0-5.931 1.12-8.156 3.363-2.284 2.32-3.425 5.064-3.425 8.234s1.14 5.895 3.425 8.175c2.283 2.281 5.002 3.421 8.156 3.421 3.193 0 5.96-1.15 8.302-3.45 2.206-2.184 3.31-4.9 3.31-8.146 0-3.247-1.123-5.992-3.368-8.234zm-1.45 14.873c-1.917 1.894-4.171 2.84-6.764 2.84s-4.828-.937-6.705-2.812c-1.878-1.875-2.816-4.097-2.816-6.667 0-1.087.172-2.115.511-3.084l3.073 1.36h-.222v1.378h1.088c0 .195-.02.389-.02.583v.33h-1.068v1.378h1.262c.175 1.03.563 1.864 1.087 2.524 1.088 1.437 2.835 2.214 4.737 2.214 1.243 0 2.369-.37 3.03-.739l-.467-2.154c-.408.214-1.32.504-2.213.504-.971 0-1.883-.29-2.504-.99-.292-.33-.505-.776-.64-1.359h4.22l5.997 2.655a8.947 8.947 0 0 1-1.587 2.04zm-7.543-6.072l-.026-.02.044.02h-.018zm3.61-.913h.174v-1.378h-3.287l-1.335-.59c.115-.26.25-.49.409-.671.602-.74 1.456-1.05 2.388-1.05.854 0 1.65.253 2.155.467l.543-2.214c-.7-.31-1.728-.581-2.912-.581-1.824 0-3.378.737-4.484 1.98a5.958 5.958 0 0 0-.652.938l-3.814-1.687c.37-.554.804-1.087 1.308-1.594 1.82-1.856 4.044-2.784 6.676-2.784 2.632 0 4.867.928 6.706 2.784 1.857 1.836 2.786 4.077 2.786 6.726 0 .873-.1 1.696-.295 2.472l-6.366-2.818z"/></g></svg>